<svg xmlns="http://www.w3.org/2000/svg" fill="none" viewBox="27.18 10 61.64 24">
<path d="M28.3983 33.5541C27.7265 33.5541 27.1819 33.0095 27.1819 32.3377V29.1591L37.1025 17.0445C37.1128 17.032 37.1184 17.0162 37.1184 16.9999C37.1184 16.9611 37.0869 16.9295 37.048 16.9295H27.1819V12.5345H41.8576C42.5294 12.5345 43.074 13.0792 43.074 13.751V16.9614L33.1852 29.0441C33.1749 29.0567 33.1693 29.0725 33.1693 29.0887C33.1693 29.1276 33.2008 29.1591 33.2397 29.1591H43.2332V33.5541H28.3983Z" fill="#1E2026"/>
<path d="M49.9869 34C48.161 34 46.8021 33.363 45.9104 32.0891C45.0399 30.8152 44.6046 28.8619 44.6046 26.2291V16.7385H49.764V26.1654C49.764 27.3969 49.9339 28.2568 50.2736 28.7451C50.6345 29.2334 51.1441 29.4776 51.8023 29.4776C52.2694 29.4776 52.694 29.3608 53.0762 29.1273C53.4796 28.8725 53.8299 28.5009 54.1272 28.0126C54.4244 27.503 54.6473 26.8555 54.796 26.0699C54.9658 25.2843 55.0507 24.3395 55.0507 23.2354V16.7385H60.2101V33.5541H55.8151V26.9935H55.5922C55.4648 28.6283 55.1781 29.9659 54.7323 31.0063C54.2864 32.0254 53.6707 32.7792 52.8851 33.2675C52.0995 33.7558 51.1335 34 49.9869 34Z" fill="#1E2026"/>
<path d="M61.4104 33.5541L68.4487 12.5345H75.1368L82.1433 33.5541H76.5699L71.8565 16.7066H71.6654L66.92 33.5541H61.4104ZM65.3913 29.8279V26.1973H78.7993V29.8279H65.3913Z" fill="#1E2026"/>
<path d="M86.1641 10C86.1641 10 86.5962 12.2217 88.8181 12.654C88.8181 12.654 86.5962 13.0863 86.1641 15.308C85.7321 13.0863 83.5101 12.654 83.5101 12.654C85.7321 12.2217 86.1641 10 86.1641 10Z" fill="#FFB800"/>
<path fill-rule="evenodd" clip-rule="evenodd" d="M83.5504 13.8876V33.5542H88.7416V13.9138C88.1514 14.3438 87.5615 14.9099 87.0825 15.6498C86.7919 16.0986 85.5364 16.0986 85.2458 15.6498C84.7569 14.8948 84.1526 14.3206 83.5504 13.8876Z" fill="#1E2026"/>
</svg>